{"asset":{"version":"2.0","generator":"babylon.js glTF exporter for Autodesk MAYA 2022.5 v20230922.2"},"scene":0,"scenes":[{"nodes":[0]}],"nodes":[{"mesh":0,"name":"pCube1"}],"meshes":[{"primitives":[{"attributes":{"POSITION":1,"TANGENT":2,"NORMAL":3,"TEXCOORD_0":4},"indices":0}],"name":"pCube1"}],"accessors":[{"bufferView":0,"componentType":5123,"count":9216,"type":"SCALAR","name":"accessorIndices"},{"bufferView":1,"componentType":5126,"count":1649,"max":[0.006436157,0.00536049251,0.006436157],"min":[-0.006436157,-0.00948905,-0.00643615751],"type":"VEC3","name":"accessorPositions"},{"bufferView":2,"componentType":5126,"count":1649,"type":"VEC4","name":"accessorTangents"},{"bufferView":1,"byteOffset":19788,"componentType":5126,"count":1649,"type":"VEC3","name":"accessorNormals"},{"bufferView":3,"componentType":5126,"count":1649,"type":"VEC2","name":"accessorUVs"}],"bufferViews":[{"buffer":0,"byteLength":18432,"name":"bufferViewScalar"},{"buffer":0,"byteOffset":18432,"byteLength":39576,"byteStride":12,"name":"bufferViewFloatVec3"},{"buffer":0,"byteOffset":58008,"byteLength":26384,"byteStride":16,"name":"bufferViewFloatVec4"},{"buffer":0,"byteOffset":84392,"byteLength":13192,"byteStride":8,"name":"bufferViewFloatVec2"}],"buffers":[{"uri":"tooth.bin","byteLength":97584}]}